<?xml version="1.0" standalone="no"?>
<!DOCTYPE svg PUBLIC "-//W3C//DTD SVG 20010904//EN"
 "http://www.w3.org/TR/2001/REC-SVG-20010904/DTD/svg10.dtd">
<svg version="1.0" xmlns="http://www.w3.org/2000/svg"
 width="768.000000pt" height="768.000000pt" viewBox="0 0 768.000000 768.000000"
 preserveAspectRatio="xMidYMid meet">
<metadata>
Created by potrace 1.14, written by Peter Selinger 2001-2017
</metadata>
<g transform="translate(0.000000,768.000000) scale(0.100000,-0.100000)"
fill="#000000" stroke="none">
<path d="M0 3840 l0 -3840 3840 0 3840 0 0 3840 0 3840 -3840 0 -3840 0 0
-3840z m2008 3375 c-661 -363 -1180 -882 -1545 -1545 l-63 -115 0 863 0 862
863 0 862 0 -117 -65z m5272 -797 l0 -863 -65 117 c-363 661 -882 1180 -1545
1545 l-115 63 863 0 862 0 0 -862z m-4243 -1775 c-2 -2 -575 -2 -1274 -1
l-1270 3 41 145 c161 558 458 1061 871 1476 426 428 923 719 1515 888 l115 33
3 -1270 c1 -699 1 -1272 -1 -1274z m1893 2460 c591 -196 1152 -580 1554 -1063
312 -376 548 -830 679 -1308 l25 -92 -1274 0 -1274 0 0 1274 0 1274 93 -25
c50 -14 139 -41 197 -60z m-1890 -5337 l0 -1274 -92 25 c-937 254 -1728 894
-2167 1753 -112 220 -201 447 -264 678 l-25 92 1274 0 1274 0 0 -1274z m4123
1182 c-254 -937 -894 -1728 -1753 -2167 -220 -112 -447 -201 -678 -264 l-92
-25 0 1274 0 1274 1274 0 1274 0 -25 -92z m-6562 -1170 c344 -544 829 -996
1407 -1313 l117 -65 -862 0 -863 0 0 863 0 862 65 -117 c35 -65 96 -168 136
-230z m6679 -518 l0 -860 -862 0 -863 0 117 65 c404 222 768 513 1062 850 173
198 372 486 492 712 27 51 50 93 52 93 1 0 2 -387 2 -860z"/>
</g>
</svg>
